# xmcd
#
# Track frame offsets:
#	150
#	10556
#	24599
#	34769
#	49905
#	63599
#	76601
#	87948
#	94265
#	107673
#	121723
#	133390
#	142041
#
# Disc length: 2079 seconds
#
# Revision: 2
# Processed by: cddbd v1.4PL0 Copyright (c) Steve Scherf et al.
# Submitted via: audiograbber 1.82.00
#
DISCID=a5081d0d
DTITLE=Six Mile Run Bluegrass Band - Six Mile Run Bluegrass Band
DYEAR=2001
DGENRE=Bluegrass
TTITLE0=Like a Fox
TTITLE1=Early
TTITLE2=Salt Creek
TTITLE3=Pilgrim
TTITLE4=Old Home Place
TTITLE5=Julia
TTITLE6=Rabbit in a log
TTITLE7=Building on The Rock
TTITLE8=Moonshiner
TTITLE9=Ocean of Diamonds
TTITLE10=Solid Rock
TTITLE11=Wichita
TTITLE12=Carolina Moon
EXTD=Recorded January 9, 2001 at Trinity Presbyterian Church, East Brunswick, N
EXTD=J.
EXTT0=
EXTT1=
EXTT2=
EXTT3=
EXTT4=
EXTT5=
EXTT6=
EXTT7=
EXTT8=
EXTT9=
EXTT10=
EXTT11=
EXTT12=
PLAYORDER=
